<?xml version="1.0" encoding="UTF-8"?>
<!DOCTYPE svg PUBLIC "-//W3C//DTD SVG 1.1//EN" "http://www.w3.org/Graphics/SVG/1.1/DTD/svg11.dtd">
<!-- Creator: CorelDRAW -->
<svg xmlns="http://www.w3.org/2000/svg" xml:space="preserve" width="601px" height="162px" style="shape-rendering:geometricPrecision; text-rendering:geometricPrecision; image-rendering:optimizeQuality; fill-rule:evenodd; clip-rule:evenodd"
viewBox="0 0 342.882 92.657"
 xmlns:xlink="http://www.w3.org/1999/xlink">
 <defs>
  <style type="text/css">
   <![CDATA[
    .fil0 {fill:#5B5B5B;fill-rule:nonzero}
    .fil1 {fill:#22AD74;fill-rule:nonzero}
   ]]>
  </style>
 </defs>
 <g id="Layer_x0020_1">
  <metadata id="CorelCorpID_0Corel-Layer"/>
  <path class="fil0" d="M150.801 35.4758c0,-3.1074 -0.509697,-5.64712 -1.5392,-7.64141 -1.02951,-1.99429 -2.59635,-3.46675 -4.70998,-4.42951 -2.10553,-0.962087 -4.76661,-1.43807 -7.99267,-1.42594l-23.0321 0c-1.50212,0.0114614 -2.893,0.370811 -4.20028,1.06659 -1.29784,0.695777 -2.43792,1.65786 -3.43101,2.88693 -0.982313,1.24121 -1.75158,2.66714 -2.30847,4.29062 -0.556217,1.62348 -0.843427,3.37438 -0.852866,5.25271l0 21.7066c0.00943883,1.87833 0.296649,3.61777 0.852866,5.25271 0.556891,1.62348 1.32616,3.04942 2.30847,4.28995 0.9931,1.22907 2.13318,2.19183 3.43101,2.88761 1.30728,0.695777 2.69816,1.05513 4.20028,1.06659l20.64 0c3.21729,-0.0114614 5.89657,-0.394408 8.04795,-1.14817 2.15138,-0.753758 3.84767,-1.78529 5.1091,-3.09594 1.26076,-1.30997 2.16014,-2.80603 2.69816,-4.49895 0.5279,-1.69292 0.797581,-3.49034 0.778704,-5.38013l0 -10.6443c-0.04652,-0.777355 -0.277771,-1.41515 -0.705215,-1.90192 -0.426096,-0.475313 -0.945231,-0.730161 -1.57561,-0.742297l-19.9166 0c-0.426096,0.0121356 -0.825223,0.13956 -1.17716,0.40587 -0.343843,0.255523 -0.631053,0.603411 -0.834662,1.04366 -0.213722,0.440928 -0.315527,0.927702 -0.324965,1.47246l0 1.11311c0.00943883,0.533968 0.111243,1.0322 0.324965,1.47313 0.203609,0.428793 0.490819,0.788142 0.834662,1.04366 0.351934,0.26631 0.751061,0.393734 1.17716,0.40587l12.462 0 0 6.4002c-0.00943883,0.730835 -0.204283,1.41448 -0.593972,2.04081 -0.389015,0.626334 -0.927028,1.17109 -1.61269,1.63494 -0.677573,0.475313 -1.47448,0.846798 -2.36443,1.11311 -0.899386,0.266984 -1.86417,0.40587 -2.88424,0.429467l-16.9676 0.0694428c-0.788142,-0.0114614 -1.49268,-0.266984 -2.12306,-0.765219 -0.621614,-0.487448 -1.12187,-1.14817 -1.48392,-1.97137 -0.370811,-0.834662 -0.556217,-1.7509 -0.565656,-2.75951l0 -20.8025c0.00943883,-0.869721 0.194844,-1.65786 0.565656,-2.37656 0.362047,-0.707912 0.862305,-1.28773 1.48392,-1.71652 0.630379,-0.440254 1.33492,-0.67218 2.12306,-0.707238l16.6339 -0.0694428c1.06659,-0.0235971 2.06778,0.0229229 3.00424,0.104501 0.936467,0.0923657 1.76169,0.335753 2.47567,0.730161 0.723419,0.394408 1.27964,1.0322 1.6882,1.92485 0.407218,0.892644 0.611501,2.12171 0.62094,3.71081l0 0.138886c0.00876463,0.556891 0.138886,0.997145 0.389015,1.32211 0.259568,0.31283 0.612176,0.475313 1.05715,0.486774l6.67595 0c0.482055,-0.0114614 0.871743,-0.196867 1.15895,-0.568352 0.296649,-0.35935 0.444973,-0.846124 0.454412,-1.44953l0 -1.66932z"/>
  <path id="1" class="fil0" d="M191.136 24.901c-0.223161,-0.521832 -0.510371,-0.997145 -0.844101,-1.43807 -0.342495,-0.440928 -0.713306,-0.800278 -1.12187,-1.06659 -0.407892,-0.266984 -0.825223,-0.40587 -1.26076,-0.417331l-8.28932 0c-0.42677,0.0114614 -0.844101,0.150347 -1.24255,0.428793 -0.398453,0.278445 -0.769939,0.637795 -1.11243,1.09018 -0.33373,0.440254 -0.631053,0.904105 -0.871743,1.40301l-18.581 39.9343c-0.538013,1.12457 -0.890621,2.04081 -1.06659,2.77097 -0.185406,0.730835 -0.231926,1.29919 -0.148324,1.71652 0.0836011,0.417331 0.250129,0.730161 0.491493,0.915567 0.241364,0.197541 0.519136,0.324965 0.815785,0.371485 0.306088,0.0579814 0.593972,0.0809043 0.852866,0.0694428l5.67476 0c0.547452,0 0.982987,-0.127424 1.31672,-0.370811 0.33373,-0.244061 0.621614,-0.579814 0.852866,-1.02074 0.231926,-0.440254 0.47329,-0.950625 0.723419,-1.53044l16.4674 -34.2994 10.9598 22.2635 -12.2954 0c-0.426096,0.0114614 -0.796907,0.138886 -1.12187,0.393734 -0.315527,0.266984 -0.593298,0.614872 -0.815785,1.04366 -0.231926,0.429467 -0.417331,0.893318 -0.565656,1.41515l-0.890621 2.85188c-0.138211,0.429467 -0.19417,0.869721 -0.14765,1.31065 0.0370811,0.45239 0.250129,0.823201 0.611501,1.13603 0.370811,0.302043 0.973548,0.463851 1.81765,0.475987l17.1908 0 1.61269 3.47821c0.269007,0.568352 0.492168,1.04366 0.668134,1.41448 0.175967,0.371485 0.351934,0.661392 0.519136,0.869721 0.166528,0.209003 0.370811,0.35935 0.612176,0.440928 0.250129,0.0923657 0.57442,0.127424 0.982313,0.127424l5.11854 0c0.268332,0 0.575094,-0.0114614 0.917589,-0.0579814 0.352608,-0.04652 0.676899,-0.151021 1.00186,-0.324965 0.314852,-0.161809 0.556217,-0.428793 0.732184,-0.788142 0.175967,-0.35935 0.222487,-0.858259 0.138886,-1.47246 -0.073488,-0.626334 -0.343169,-1.41515 -0.788142,-2.36578l-18.9147 -40.769z"/>
  <path id="12" class="fil0" d="M249.716 59.617l-17.5798 -34.716c-0.259568,-0.54543 -0.538013,-1.0322 -0.85354,-1.47313 -0.314852,-0.440254 -0.676225,-0.788142 -1.09356,-1.04299 -0.407892,-0.266984 -0.889947,-0.40587 -1.44684,-0.40587l-8.90082 0c-0.42677,0 -0.825223,0.138886 -1.17783,0.40587 -0.342495,0.254848 -0.630379,0.602737 -0.834662,1.04299 -0.212374,0.440928 -0.314852,0.927702 -0.324291,1.47313l0 42.8563c0.00943883,0.533294 0.111918,1.0322 0.324291,1.47246 0.204283,0.429467 0.492168,0.788817 0.834662,1.04366 0.352608,0.266984 0.751061,0.394408 1.17783,0.40587l5.06258 0c0.435535,-0.0114614 0.824549,-0.138886 1.17716,-0.40587 0.352608,-0.254848 0.630379,-0.614198 0.834662,-1.04366 0.213048,-0.440254 0.315527,-0.939164 0.324965,-1.47246l0 -31.4468 16.3555 31.4468c0.231926,0.498235 0.509697,0.962087 0.852866,1.40301 0.334404,0.440928 0.714654,0.800278 1.12187,1.09018 0.407892,0.277771 0.825223,0.417331 1.25199,0.428793l5.73004 0c0.435535,-0.0114614 0.852866,-0.151021 1.26143,-0.428793 0.407892,-0.289907 0.778704,-0.649257 1.12187,-1.09018 0.33373,-0.440928 0.62094,-0.904779 0.843427,-1.40301l16.3561 -31.4468 0 31.4468c0.00943883,0.533294 0.111243,1.0322 0.324965,1.47246 0.203609,0.429467 0.490819,0.788817 0.843427,1.04366 0.343169,0.266984 0.741622,0.394408 1.16839,0.40587l5.06191 0c0.436209,-0.0114614 0.825898,-0.138886 1.17783,-0.40587 0.352608,-0.254848 0.630379,-0.614198 0.844101,-1.04366 0.203609,-0.440254 0.314852,-0.939164 0.314852,-1.47246l0 -42.8563c0,-0.54543 -0.111243,-1.0322 -0.314852,-1.47313 -0.213722,-0.440254 -0.491493,-0.788142 -0.844101,-1.04299 -0.351934,-0.266984 -0.741622,-0.40587 -1.17783,-0.40587l-8.84486 0c-0.547452,0 -1.03895,0.138886 -1.46572,0.40587 -0.417331,0.254848 -0.788142,0.602737 -1.11243,1.04299 -0.324291,0.440928 -0.612176,0.927702 -0.871069,1.47313l-17.5245 34.716z"/>
  <path id="123" class="fil0" d="M323.095 24.901c-0.223161,-0.521832 -0.510371,-0.997145 -0.844101,-1.43807 -0.342495,-0.440928 -0.713306,-0.800278 -1.12187,-1.06659 -0.407892,-0.266984 -0.825223,-0.40587 -1.26076,-0.417331l-8.28932 0c-0.42677,0.0114614 -0.844101,0.150347 -1.24255,0.428793 -0.398453,0.278445 -0.769939,0.637795 -1.11243,1.09018 -0.33373,0.440254 -0.631053,0.904105 -0.871743,1.40301l-18.581 39.9343c-0.538013,1.12457 -0.890621,2.04081 -1.06659,2.77097 -0.185406,0.730835 -0.231926,1.29919 -0.148324,1.71652 0.0836011,0.417331 0.250129,0.730161 0.491493,0.915567 0.241364,0.197541 0.519136,0.324965 0.815785,0.371485 0.306088,0.0579814 0.593972,0.0809043 0.852866,0.0694428l5.67476 0c0.547452,0 0.982987,-0.127424 1.31672,-0.370811 0.33373,-0.244061 0.621614,-0.579814 0.852866,-1.02074 0.231926,-0.440254 0.47329,-0.950625 0.723419,-1.53044l16.4674 -34.2994 10.9598 22.2635 -12.2954 0c-0.426096,0.0114614 -0.796907,0.138886 -1.12187,0.393734 -0.315527,0.266984 -0.593298,0.614872 -0.815785,1.04366 -0.231926,0.429467 -0.417331,0.893318 -0.565656,1.41515l-0.890621 2.85188c-0.138211,0.429467 -0.19417,0.869721 -0.14765,1.31065 0.0370811,0.45239 0.250129,0.823201 0.611501,1.13603 0.370811,0.302043 0.973548,0.463851 1.81765,0.475987l17.1908 0 1.61269 3.47821c0.269007,0.568352 0.492168,1.04366 0.668134,1.41448 0.175967,0.371485 0.351934,0.661392 0.519136,0.869721 0.166528,0.209003 0.370811,0.35935 0.612176,0.440928 0.250129,0.0923657 0.57442,0.127424 0.982313,0.127424l5.11854 0c0.268332,0 0.575094,-0.0114614 0.917589,-0.0579814 0.352608,-0.04652 0.676899,-0.151021 1.00186,-0.324965 0.314852,-0.161809 0.556217,-0.428793 0.732184,-0.788142 0.175967,-0.35935 0.222487,-0.858259 0.138886,-1.47246 -0.073488,-0.626334 -0.343169,-1.41515 -0.788142,-2.36578l-18.9147 -40.769z"/>
  <g id="_702329584">
   <path id="_702307216" class="fil1" d="M50.2186 2.1979l13.118 7.57399 -0.00404521 0.00674202 13.1072 7.56725 0.0155067 0c2.52084,1.4556 4.51176,3.44854 5.88039,5.81836l0 0.0155067c1.3774,2.38668 2.11295,5.10776 2.11295,8.00143l0 15.1473 0 15.148c0,2.893 -0.735555,5.61408 -2.11295,8.00076l0 0.0155067c-1.36863,2.36982 -3.35955,4.36344 -5.88039,5.81904l-13.1186 7.57399 -13.118 7.57399c-2.53702,1.46437 -5.2635,2.19722 -7.99402,2.19722 -2.73052,0 -5.45699,-0.732858 -7.99402,-2.19722l-13.1186 -7.57399 -13.118 -7.57399c-2.50803,-1.44819 -4.4976,-3.44315 -5.87432,-5.82308l-0.00606782 0.00404521c-1.37807,-2.38668 -2.11362,-5.11248 -2.11362,-8.01626l0 -15.148 0 -15.1473c0,-2.90446 0.735555,-5.63026 2.11362,-8.01694l0.00606782 0.00404521c1.37672,-2.37993 3.36629,-4.3749 5.87432,-5.82241l13.118 -7.57399 13.1186 -7.57399c2.53702,-1.46504 5.2635,-2.1979 7.99402,-2.1979 2.73052,0 5.45699,0.732858 7.99402,2.1979zm9.26489 14.2263l-13.118 -7.57399c-1.32076,-0.763197 -2.73322,-1.14412 -4.14095,-1.14412 -1.40706,0 -2.82019,0.380924 -4.14095,1.14412l-13.1186 7.57399 -13.118 7.57399c-1.34638,0.777355 -2.38937,1.80551 -3.0811,3.00424l0 0.0148324c-0.691057,1.19671 -1.06052,2.61186 -1.06052,4.16387l0 15.1473 0 15.148c0,1.55134 0.369463,2.96649 1.06052,4.1632l0 0.0148324c0.691731,1.19873 1.73405,2.22756 3.0811,3.00492l13.118 7.57399 13.1186 7.57399c1.32076,0.762523 2.73389,1.14412 4.14095,1.14412 1.40773,0 2.82019,-0.381598 4.14095,-1.14412l13.118 -7.57399 13.1186 -7.57399c1.33762,-0.772636 2.38061,-1.80686 3.0811,-3.01975l0.00674202 0.00404521c0.687012,-1.19469 1.0531,-2.61051 1.0531,-4.16724l0 -15.148 0 -15.1473c0,-1.55673 -0.366766,-2.97323 -1.0531,-4.16724l-0.00674202 0.00337101c-0.700496,-1.21289 -1.74349,-2.24712 -3.0811,-3.01908l0.00404521 -0.00674202 -13.1072 -7.56725 -0.0155067 0z"/>
   <path id="_702306712" class="fil1" d="M46.5779 18.5905l8.75047 5.05247 -0.00404521 0.00674202 8.73901 5.04505 0.0155067 0c1.36256,0.786794 2.44398,1.87159 3.19167,3.16673l0 0.0155067c0.757129,1.312 1.16165,2.79052 1.16165,4.34726l0 3.23078 -7.70613 0 0 -3.23078c0,-0.217767 -0.0350585,-0.391711 -0.10113,-0.513068l-0.00674202 0.00337101c-0.0795559,-0.137537 -0.212374,-0.263613 -0.392386,-0.36744l0.00337101 -0.00674202 -8.73901 -5.04505 -0.0148324 0 -8.75047 -5.05247c-0.163157,-0.0943883 -0.334404,-0.141582 -0.500258,-0.141582 -0.166528,0 -0.337101,0.0471942 -0.500932,0.141582l-8.7498 5.05247 -0.0155067 0 -8.73901 5.04505 0.00404521 0.00674202c-0.180012,0.103827 -0.31283,0.229903 -0.39306,0.368114 -0.070117,0.121356 -0.107872,0.293952 -0.107872,0.509023l0 10.1043 0 10.1036c0,0.21507 0.0377553,0.387666 0.107872,0.509697 0.0795559,0.137537 0.213048,0.264287 0.39306,0.368114l8.75047 5.0518 8.7498 5.0518c0.163831,0.0950625 0.334404,0.142257 0.500932,0.142257 0.165854,0 0.337101,-0.0471942 0.500258,-0.142257l8.75047 -5.0518 0.0148324 0 8.73901 -5.04505 -0.00337101 -0.00674202c0.180012,-0.104501 0.31283,-0.229903 0.392386,-0.368114l0.00674202 0.00404521c0.0660718,-0.122031 0.10113,-0.295301 0.10113,-0.513742l0 -4.7538 -10.1103 0c-0.218442,0 -0.392386,0.0357327 -0.513742,0.101805l0.00404521 0.00674202c-0.138211,0.0795559 -0.264287,0.212374 -0.368114,0.392386l-0.00674202 -0.00404521 -2.6658 4.61761 -8.85902 0 4.8792 -8.45112 0 -0.0155067c0.786794,-1.36324 1.87159,-2.44398 3.1674,-3.19167l0.0148324 0c1.312,-0.757129 2.79052,-1.16165 4.34793,-1.16165 5.93635,0 11.8727,0 17.8097,0l0.00674202 0 0 2.28892 0 0.066746 0 5.34979 0 4.7538c0,1.55673 -0.404521,3.03593 -1.16165,4.34793l0 0.0148324c-0.74769,1.29514 -1.82911,2.38061 -3.19167,3.1674l-0.0155067 0 -8.73901 5.04505 0.00404521 0.00674202 -8.75047 5.0518c-1.37942,0.796907 -2.86401,1.19536 -4.35332,1.19536 -1.48864,0 -2.97391,-0.398453 -4.354,-1.19536l-8.7498 -5.0518 -8.75047 -5.0518c-1.36324,-0.787468 -2.44398,-1.87226 -3.19235,-3.1674 -0.756455,-1.31132 -1.16098,-2.79524 -1.16098,-4.36276l0 -10.1036 0 -10.1043c0,-1.56685 0.404521,-3.05076 1.16098,-4.36209 0.748364,-1.29514 1.82911,-2.38061 3.19235,-3.1674l0.0155067 0 8.73901 -5.04505 -0.00404521 -0.00674202 8.7498 -5.05247c1.38009,-0.796233 2.86536,-1.19469 4.354,-1.19469 1.48931,0 2.97391,0.398453 4.35332,1.19469z"/>
  </g>
 </g>
</svg>
